<svg xmlns="http://www.w3.org/2000/svg" viewBox="0 0 200 200" role="img" aria-label="G8 引星"><style>
.spin{transform-origin:100px 100px;animation:spin 16s linear infinite}
.spinr{transform-origin:100px 100px;animation:spin 90s linear infinite reverse}
.sweep{transform-origin:100px 100px;animation:spin 6.5s linear infinite}
.gal{transform-origin:100px 100px;animation:spin 46s linear infinite}
.orbit{transform-origin:100px 100px;animation:spin 11s linear infinite}
.orbitr{transform-origin:100px 100px;animation:spin 15s linear infinite reverse}
.rip{transform-origin:100px 100px;opacity:0;animation:rip 4.4s ease-out infinite}
.wing{transform-origin:100px 100px;animation:wing 4.4s ease-in-out infinite}
.rise{transform-box:fill-box;transform-origin:center;opacity:0;animation:rise 4.2s ease-out infinite}
.ray0{transform-origin:100px 100px;animation:spin 48s linear infinite}
.ray1{transform-origin:100px 100px;animation:spin 70s linear infinite reverse}
.au0{transform-origin:100px 100px;animation:spin 9s linear infinite}
.au1{transform-origin:100px 100px;animation:spin 13s linear infinite reverse}
.run2{stroke-dasharray:9 91;animation:run 5.2s linear infinite}
.nova{transform-origin:100px 100px;opacity:0;animation:nova 6.5s ease-out infinite}
.novaring{transform-origin:100px 100px;opacity:0;animation:novaring 6.5s ease-out infinite}
@keyframes nova{0%,72%{opacity:0;transform:scale(.3)}80%{opacity:1;transform:scale(1.15)}100%{opacity:0;transform:scale(1.5)}}
@keyframes novaring{0%,76%{opacity:0;transform:scale(.4)}82%{opacity:.9}100%{opacity:0;transform:scale(3)}}
.gl0{animation:gl 2.8s ease-in-out infinite}
.gl1{animation:gl 2.2s ease-in-out -.9s infinite}
.gl2{animation:gl 3.4s ease-in-out -1.7s infinite}
@keyframes rip{0%{transform:scale(1);opacity:.75}100%{transform:scale(1.58);opacity:0}}
@keyframes wing{0%,100%{transform:scale(1)}50%{transform:scale(1.035)}}
@keyframes rise{0%{transform:translateY(7px) scale(.4);opacity:0}30%{opacity:1}100%{transform:translateY(-17px) scale(1);opacity:0}}
@keyframes gl{0%,100%{opacity:.15}50%{opacity:1}}
.breath{transform-origin:100px 100px;animation:breath 5s ease-in-out infinite}
.beat{animation:beat 3.4s ease-in-out infinite}
.drift0{animation:drift0 13s ease-in-out infinite alternate}
.drift1{animation:drift1 17s ease-in-out infinite alternate}
.tw0{animation:tw 3.1s ease-in-out infinite}
.tw1{animation:tw 2.3s ease-in-out -1.1s infinite}
.tw2{animation:tw 4.2s ease-in-out -2.4s infinite}
.run{stroke-dasharray:7 93;animation:run 5.5s linear infinite}
.shoot{opacity:0;animation:shoot 7s ease-in infinite}
.shoot.late{animation-delay:-3.2s;animation-name:shoot2}
@keyframes spin{to{transform:rotate(360deg)}}
@keyframes breath{0%,100%{opacity:.5;transform:scale(.95)}50%{opacity:.95;transform:scale(1.03)}}
@keyframes beat{0%,100%{transform:scale(.9);opacity:.82}50%{transform:scale(1.08);opacity:1}}
@keyframes drift0{from{transform:translate(-7px,4px)}to{transform:translate(9px,-6px)}}
@keyframes drift1{from{transform:translate(8px,6px)}to{transform:translate(-9px,-5px)}}
@keyframes tw{0%,100%{opacity:.5}50%{opacity:1}}
@keyframes run{from{stroke-dashoffset:100}to{stroke-dashoffset:0}}
@keyframes shoot{0%{transform:translate(150px,58px);opacity:0}3%{opacity:1}13%{transform:translate(62px,92px);opacity:0}100%{transform:translate(62px,92px);opacity:0}}
@keyframes shoot2{0%{transform:translate(138px,104px);opacity:0}3%{opacity:1}12%{transform:translate(70px,130px);opacity:0}100%{transform:translate(70px,130px);opacity:0}}
@media (prefers-reduced-motion:reduce){*{animation:none!important}.run,.run2,.shoot,.sweep,.nova,.novaring{display:none}}
</style><defs><linearGradient id="g8m" x1="28" y1="20" x2="172" y2="180" gradientUnits="userSpaceOnUse"><stop offset="0" stop-color="#fff5d6"/><stop offset=".22" stop-color="#d6b062"/><stop offset=".48" stop-color="#573a10"/><stop offset=".7" stop-color="#fff5d6"/><stop offset="1" stop-color="#d6b062"/></linearGradient><radialGradient id="g8d" cx=".5" cy=".36" r=".72"><stop offset="0" stop-color="#261f5c"/><stop offset=".6" stop-color="#0d0f2c"/><stop offset="1" stop-color="#05070f"/></radialGradient><radialGradient id="g8s"><stop offset="0" stop-color="#fff" stop-opacity=".85"/><stop offset=".28" stop-color="#5aa2ff" stop-opacity=".42"/><stop offset="1" stop-color="#b07bff" stop-opacity="0"/></radialGradient><radialGradient id="g8v"><stop offset=".72" stop-color="#000" stop-opacity="0"/><stop offset="1" stop-color="#000" stop-opacity=".62"/></radialGradient><clipPath id="g8k"><circle cx="100" cy="100" r="59"/></clipPath><linearGradient id="g8p" x1="20" y1="20" x2="180" y2="180" gradientUnits="userSpaceOnUse"><stop offset="0" stop-color="#4df2d6"/><stop offset="0.33" stop-color="#5aa2ff"/><stop offset="0.67" stop-color="#b07bff"/><stop offset="1" stop-color="#4df2d6"/></linearGradient><radialGradient id="g8bp" cx="100" cy="100" r="96" gradientUnits="userSpaceOnUse"><stop offset=".45" stop-color="#3a2a8c"/><stop offset="1" stop-color="#0a0c24"/></radialGradient><radialGradient id="g8ry" cx="100" cy="100" r="99" gradientUnits="userSpaceOnUse"><stop offset=".5" stop-color="#5aa2ff" stop-opacity=".75"/><stop offset=".78" stop-color="#b07bff" stop-opacity=".3"/><stop offset="1" stop-color="#4df2d6" stop-opacity="0"/></radialGradient><clipPath id="g8gt"><rect x="-20" y="-20" width="240" height="120"/></clipPath><clipPath id="g8gb"><rect x="-20" y="100" width="240" height="120"/></clipPath><radialGradient id="g8n0"><stop offset="0" stop-color="#4df2d6" stop-opacity="0.36"/><stop offset="1" stop-color="#4df2d6" stop-opacity="0"/></radialGradient><radialGradient id="g8n1"><stop offset="0" stop-color="#5aa2ff" stop-opacity="0.36"/><stop offset="1" stop-color="#5aa2ff" stop-opacity="0"/></radialGradient><radialGradient id="g8n2"><stop offset="0" stop-color="#b07bff" stop-opacity="0.36"/><stop offset="1" stop-color="#b07bff" stop-opacity="0"/></radialGradient></defs><circle cx="100" cy="100" r="96" fill="url(#g8n0)" opacity="0.8" class="breath"/><g class="au0" style="animation-delay:0s"><circle cx="100" cy="100" r="72" fill="none" stroke="#4df2d6" stroke-width="8" stroke-linecap="round" stroke-dasharray="46 150" opacity="0.3"/></g><g class="au1" style="animation-delay:-1.7s"><circle cx="100" cy="100" r="76.5" fill="none" stroke="#5aa2ff" stroke-width="7" stroke-linecap="round" stroke-dasharray="60 180" opacity="0.27"/></g><g class="au0" style="animation-delay:-3.4s"><circle cx="100" cy="100" r="81" fill="none" stroke="#b07bff" stroke-width="6" stroke-linecap="round" stroke-dasharray="74 210" opacity="0.24"/></g><clipPath id="g8ba"><path d="M163.64 36.36Q140 100 163.64 163.64Q100 140 36.36 163.64Q60 100 36.36 36.36Q100 60 163.64 36.36Z"/></clipPath><path d="M163.64 36.36Q140 100 163.64 163.64Q100 140 36.36 163.64Q60 100 36.36 36.36Q100 60 163.64 36.36Z" fill="url(#g8bp)" stroke="url(#g8m)" stroke-width="1.9" stroke-linejoin="round"/><path d="M157.28 42.72Q135 100 157.28 157.28Q100 135 42.72 157.28Q65 100 42.72 42.72Q100 65 157.28 42.72Z" fill="none" stroke="url(#g8p)" stroke-width="1.4" stroke-linejoin="round"/><path d="M166.47 33.53L100 100L194 100ZM166.47 166.47L100 100L100 194ZM33.53 166.47L100 100L6 100ZM33.53 33.53L100 100L100 6Z" fill="#081022" opacity=".3" clip-path="url(#g8ba)"/><path d="M145.25 54.75L161.52 38.48M145.25 145.25L161.52 161.52M54.75 145.25L38.48 161.52M54.75 54.75L38.48 38.48" stroke="#fff" stroke-width=".7" opacity=".75" stroke-linecap="round" class="tw2"/><g class="wing"><g transform="rotate(0 100 100)"><path d="M158.71 61.88A48.07 48.07 0 0 1 158.71 138.12A70 70 0 0 0 158.71 61.88Z" fill="url(#g8p)" stroke="url(#g8m)" stroke-width="0.8" stroke-linejoin="round"/><path d="M169.45 74.09Q177.88 100 169.45 125.91" fill="none" stroke="#fff" stroke-width=".6" opacity=".6" stroke-linecap="round"/></g><g transform="rotate(180 100 100)"><path d="M158.71 61.88A48.07 48.07 0 0 1 158.71 138.12A70 70 0 0 0 158.71 61.88Z" fill="url(#g8p)" stroke="url(#g8m)" stroke-width="0.8" stroke-linejoin="round"/><path d="M169.45 74.09Q177.88 100 169.45 125.91" fill="none" stroke="#fff" stroke-width=".6" opacity=".6" stroke-linecap="round"/></g></g><g clip-path="url(#g8k)"><circle cx="100" cy="100" r="59" fill="url(#g8d)"/><ellipse cx="78" cy="80" rx="44" ry="34" transform="rotate(-24 78 80)" fill="url(#g8n0)" class="drift0"/><ellipse cx="124" cy="118" rx="46" ry="30" transform="rotate(18 124 118)" fill="url(#g8n1)" class="drift1"/><ellipse cx="112" cy="74" rx="34" ry="26" transform="rotate(40 112 74)" fill="url(#g8n2)" class="drift0"/><g fill="#ffffff"><circle cx="141.37" cy="124.63" r="0.41" opacity="0.45"/><circle cx="83.1" cy="141.35" r="0.79" opacity="0.44"/><circle cx="127.72" cy="106.27" r="0.91" opacity="0.58"/><circle cx="76.74" cy="79.22" r="0.85" opacity="0.53"/><circle cx="49.39" cy="86.93" r="0.57" opacity="0.28"/><circle cx="93.62" cy="102.42" r="0.58" opacity="0.47"/><circle cx="73.77" cy="121.1" r="0.79" opacity="0.47"/><circle cx="92.13" cy="94.99" r="0.47" opacity="0.78"/><circle cx="124.75" cy="70.15" r="0.46" opacity="0.42"/><circle cx="56.42" cy="76.13" r="0.74" opacity="0.37"/><circle cx="116.44" cy="93.69" r="0.9" opacity="0.26"/><circle cx="82.22" cy="60.17" r="0.9" opacity="0.73"/><circle cx="78.59" cy="56.67" r="0.52" opacity="0.51"/><circle cx="123.94" cy="103.33" r="0.55" opacity="0.52"/><circle cx="68.44" cy="94.66" r="0.77" opacity="0.28"/><circle cx="91.41" cy="47.31" r="0.59" opacity="0.4"/><circle cx="108.83" cy="77.96" r="0.56" opacity="0.67"/><circle cx="127.14" cy="135.42" r="0.77" opacity="0.41"/><circle cx="107.7" cy="130.11" r="0.76" opacity="0.36"/><circle cx="104.32" cy="106.24" r="0.67" opacity="0.46"/><circle cx="80.46" cy="134.35" r="0.84" opacity="0.68"/><circle cx="52.63" cy="108.96" r="0.6" opacity="0.58"/><circle cx="74.09" cy="142.57" r="0.73" opacity="0.73"/><circle cx="127.49" cy="115.98" r="0.6" opacity="0.33"/><circle cx="75.35" cy="74.89" r="0.79" opacity="0.33"/><circle cx="94.5" cy="73.44" r="0.51" opacity="0.76"/><circle cx="64.85" cy="75.46" r="0.51" opacity="0.67"/><circle cx="78.01" cy="125.52" r="0.49" opacity="0.65"/><circle cx="62.5" cy="111.25" r="0.64" opacity="0.78"/><circle cx="120.44" cy="80.08" r="0.95" opacity="0.69"/><circle cx="135.95" cy="121.87" r="0.43" opacity="0.43"/><circle cx="69.57" cy="64.26" r="0.38" opacity="0.35"/><circle cx="150.59" cy="104.08" r="0.77" opacity="0.52"/><circle cx="94.35" cy="152.1" r="0.45" opacity="0.47"/><circle cx="80.7" cy="119.62" r="0.58" opacity="0.51"/><circle cx="65.91" cy="120.51" r="0.69" opacity="0.77"/><circle cx="126.19" cy="100.65" r="0.95" opacity="0.6"/><circle cx="70.47" cy="79.11" r="0.88" opacity="0.29"/><circle cx="51.56" cy="82.21" r="0.68" opacity="0.26"/><circle cx="131.63" cy="129.92" r="0.36" opacity="0.47"/><circle cx="88.79" cy="71.44" r="0.84" opacity="0.53"/><circle cx="136.1" cy="107.7" r="0.76" opacity="0.74"/><circle cx="94.1" cy="111.13" r="0.62" opacity="0.41"/><circle cx="107.59" cy="114.37" r="0.92" opacity="0.52"/><circle cx="123.8" cy="94.18" r="0.5" opacity="0.28"/><circle cx="99.05" cy="135.59" r="0.55" opacity="0.39"/><circle cx="142.01" cy="110.55" r="0.89" opacity="0.62"/><circle cx="129.17" cy="106.03" r="0.36" opacity="0.36"/><circle cx="67.54" cy="124.87" r="0.84" opacity="0.54"/><circle cx="49.98" cy="93.61" r="0.7" opacity="0.49"/><circle cx="102.52" cy="64.81" r="0.71" opacity="0.38"/><circle cx="94.73" cy="136.66" r="0.84" opacity="0.36"/><circle cx="94.38" cy="111.62" r="0.56" opacity="0.32"/><circle cx="95.13" cy="55.25" r="0.39" opacity="0.32"/></g><path d="M154.4 100L149.4 100M154.1 105.69L151.62 105.43M153.21 111.31L150.77 110.79M151.74 116.81L149.36 116.04M149.7 122.13L147.41 121.11M147.11 127.2L142.78 124.7M144.01 131.98L141.99 130.51M140.43 136.4L138.57 134.73M136.4 140.43L134.73 138.57M131.98 144.01L130.51 141.99M127.2 147.11L124.7 142.78M122.13 149.7L121.11 147.41M116.81 151.74L116.04 149.36M111.31 153.21L110.79 150.77M105.69 154.1L105.43 151.62M100 154.4L100 149.4M94.31 154.1L94.57 151.62M88.69 153.21L89.21 150.77M83.19 151.74L83.96 149.36M77.87 149.7L78.89 147.41M72.8 147.11L75.3 142.78M68.02 144.01L69.49 141.99M63.6 140.43L65.27 138.57M59.57 136.4L61.43 134.73M55.99 131.98L58.01 130.51M52.89 127.2L57.22 124.7M50.3 122.13L52.59 121.11M48.26 116.81L50.64 116.04M46.79 111.31L49.23 110.79M45.9 105.69L48.38 105.43M45.6 100L50.6 100M45.9 94.31L48.38 94.57M46.79 88.69L49.23 89.21M48.26 83.19L50.64 83.96M50.3 77.87L52.59 78.89M52.89 72.8L57.22 75.3M55.99 68.02L58.01 69.49M59.57 63.6L61.43 65.27M63.6 59.57L65.27 61.43M68.02 55.99L69.49 58.01M72.8 52.89L75.3 57.22M77.87 50.3L78.89 52.59M83.19 48.26L83.96 50.64M88.69 46.79L89.21 49.23M94.31 45.9L94.57 48.38M100 45.6L100 50.6M105.69 45.9L105.43 48.38M111.31 46.79L110.79 49.23M116.81 48.26L116.04 50.64M122.13 50.3L121.11 52.59M127.2 52.89L124.7 57.22M131.98 55.99L130.51 58.01M136.4 59.57L134.73 61.43M140.43 63.6L138.57 65.27M144.01 68.02L141.99 69.49M147.11 72.8L142.78 75.3M149.7 77.87L147.41 78.89M151.74 83.19L149.36 83.96M153.21 88.69L150.77 89.21M154.1 94.31L151.62 94.57" stroke="#ffffff" stroke-width=".7" opacity=".42" class="spinr"/><circle cx="100" cy="100" r="46.9" fill="none" stroke="#ffffff" stroke-width=".6" opacity=".3"/><g fill="#5aa2ff" color="#4df2d6" opacity="0.4"><path d="M104 98L91 80L69 74L74 121Z"/><path d="M104 98L117 116L118 139L74 121Z" opacity=".6"/></g><path d="M139 70L127 79M127 79L104 98M104 98L74 121M104 98L91 80M91 80L69 74M104 98L117 116M117 116L118 139M69 74L74 121M118 139L74 121" fill="none" stroke="#ffffff" stroke-width="1.22" stroke-linecap="round" opacity=".62"/><path d="M139 70L127 79M127 79L104 98M104 98L74 121M104 98L91 80M91 80L69 74M104 98L117 116M117 116L118 139M69 74L74 121M118 139L74 121" pathLength="100" fill="none" stroke="#fff" stroke-width="1.7" stroke-linecap="round" class="run"/><g class="tw1"><circle cx="127" cy="79" r="7.5" fill="url(#g8s)"/><path d="M127 73.4Q127.64 78.36 132.6 79Q127.64 79.64 127 84.6Q126.36 79.64 121.4 79Q126.36 78.36 127 73.4Z" fill="#fff"/></g><g class="tw0"><circle cx="74" cy="121" r="7.5" fill="url(#g8s)"/><path d="M74 115.4Q74.64 120.36 79.6 121Q74.64 121.64 74 126.6Q73.36 121.64 68.4 121Q73.36 120.36 74 115.4Z" fill="#fff"/></g><g class="tw1"><circle cx="91" cy="80" r="7.5" fill="url(#g8s)"/><path d="M91 74.4Q91.64 79.36 96.6 80Q91.64 80.64 91 85.6Q90.36 80.64 85.4 80Q90.36 79.36 91 74.4Z" fill="#fff"/></g><g class="tw2"><circle cx="69" cy="74" r="7.5" fill="url(#g8s)"/><path d="M69 68.4Q69.64 73.36 74.6 74Q69.64 74.64 69 79.6Q68.36 74.64 63.4 74Q68.36 73.36 69 68.4Z" fill="#fff"/></g><g class="tw0"><circle cx="117" cy="116" r="7.5" fill="url(#g8s)"/><path d="M117 110.4Q117.64 115.36 122.6 116Q117.64 116.64 117 121.6Q116.36 116.64 111.4 116Q116.36 115.36 117 110.4Z" fill="#fff"/></g><g class="tw1"><circle cx="118" cy="139" r="7.5" fill="url(#g8s)"/><path d="M118 133.4Q118.64 138.36 123.6 139Q118.64 139.64 118 144.6Q117.36 139.64 112.4 139Q117.36 138.36 118 133.4Z" fill="#fff"/></g><g class="tw2"><circle cx="104" cy="98" r="11" fill="url(#g8s)"/><path d="M104 89.4Q104.85 97.15 112.6 98Q104.85 98.85 104 106.6Q103.15 98.85 95.4 98Q103.15 97.15 104 89.4Z" fill="#fff"/><path d="M106.55 95.45Q104.7 98 106.55 100.55Q104 98.7 101.45 100.55Q103.3 98 101.45 95.45Q104 97.3 106.55 95.45Z" fill="#fff" opacity=".8"/></g><g class="beat" style="transform-origin:139px 70px"><circle cx="139" cy="70" r="25.84" fill="url(#g8s)"/><path d="M139 46.2Q139.32 69.68 162.8 70Q139.32 70.32 139 93.8Q138.68 70.32 115.2 70Q138.68 69.68 139 46.2Z" fill="#fff" opacity=".55"/><path d="M144.96 64.04Q139.9 70 144.96 75.96Q139 70.9 133.04 75.96Q138.1 70 133.04 64.04Q139 69.1 144.96 64.04Z" fill="#fff" opacity=".85"/><path d="M139 56.4Q140.13 68.87 152.6 70Q140.13 71.13 139 83.6Q137.87 71.13 125.4 70Q137.87 68.87 139 56.4Z" fill="#fff"/></g><g class="shoot"><path d="M0 0L18 -7" stroke="#fff" stroke-width="1.3" stroke-linecap="round" opacity=".9"/><path d="M0 0L34 -13" stroke="#fff" stroke-width=".6" stroke-linecap="round" opacity=".45"/></g><circle cx="100" cy="100" r="59" fill="url(#g8v)"/><path d="M53.98 82.3A59 59 0 0 1 117.7 53.98A73.75 73.75 0 0 0 53.98 82.3Z" fill="#fff" opacity=".055"/></g><circle cx="100" cy="100" r="59" fill="none" stroke="#3a2708" stroke-width="8"/><g class="spin"><circle cx="100" cy="100" r="59" fill="none" stroke="url(#g8p)" stroke-width="6.2"/></g><circle cx="100" cy="100" r="61.5" fill="none" stroke="url(#g8m)" stroke-width="1.7"/><circle cx="100" cy="100" r="56.5" fill="none" stroke="url(#g8m)" stroke-width="1.4"/><g class="sweep"><circle cx="100" cy="100" r="59" fill="none" stroke="#fff" stroke-width="3.6" stroke-linecap="round" stroke-dasharray="14 400" opacity=".85"/></g><circle cx="100" cy="100" r="56.3" fill="none" stroke="#000" stroke-width=".8" opacity=".5"/><g fill="url(#g8m)" stroke="#3a2708" stroke-width=".45"><circle cx="165.76" cy="104.31" r="1.2"/><circle cx="164.63" cy="112.86" r="1.2"/><circle cx="162.4" cy="121.18" r="1.2"/><circle cx="159.1" cy="129.15" r="1.2"/><circle cx="154.79" cy="136.61" r="1.2"/><circle cx="149.55" cy="143.45" r="1.2"/><circle cx="143.45" cy="149.55" r="1.2"/><circle cx="136.61" cy="154.79" r="1.2"/><circle cx="129.15" cy="159.1" r="1.2"/><circle cx="121.18" cy="162.4" r="1.2"/><circle cx="112.86" cy="164.63" r="1.2"/><circle cx="104.31" cy="165.76" r="1.2"/><circle cx="95.69" cy="165.76" r="1.2"/><circle cx="87.14" cy="164.63" r="1.2"/><circle cx="78.82" cy="162.4" r="1.2"/><circle cx="70.85" cy="159.1" r="1.2"/><circle cx="63.39" cy="154.79" r="1.2"/><circle cx="56.55" cy="149.55" r="1.2"/><circle cx="50.45" cy="143.45" r="1.2"/><circle cx="45.21" cy="136.61" r="1.2"/><circle cx="40.9" cy="129.15" r="1.2"/><circle cx="37.6" cy="121.18" r="1.2"/><circle cx="35.37" cy="112.86" r="1.2"/><circle cx="34.24" cy="104.31" r="1.2"/><circle cx="34.24" cy="95.69" r="1.2"/><circle cx="35.37" cy="87.14" r="1.2"/><circle cx="37.6" cy="78.82" r="1.2"/><circle cx="40.9" cy="70.85" r="1.2"/><circle cx="45.21" cy="63.39" r="1.2"/><circle cx="50.45" cy="56.55" r="1.2"/><circle cx="56.55" cy="50.45" r="1.2"/><circle cx="63.39" cy="45.21" r="1.2"/><circle cx="70.85" cy="40.9" r="1.2"/><circle cx="78.82" cy="37.6" r="1.2"/><circle cx="87.14" cy="35.37" r="1.2"/><circle cx="95.69" cy="34.24" r="1.2"/><circle cx="104.31" cy="34.24" r="1.2"/><circle cx="112.86" cy="35.37" r="1.2"/><circle cx="121.18" cy="37.6" r="1.2"/><circle cx="129.15" cy="40.9" r="1.2"/><circle cx="136.61" cy="45.21" r="1.2"/><circle cx="143.45" cy="50.45" r="1.2"/><circle cx="149.55" cy="56.55" r="1.2"/><circle cx="154.79" cy="63.39" r="1.2"/><circle cx="159.1" cy="70.85" r="1.2"/><circle cx="162.4" cy="78.82" r="1.2"/><circle cx="164.63" cy="87.14" r="1.2"/><circle cx="165.76" cy="95.69" r="1.2"/></g><g transform="rotate(-18 100 100)"><path d="M100 25Q99.25 30.07 97 35.14L100 40L103 35.14Q100.75 30.07 100 25Z" fill="url(#g8m)" stroke="#3a2708" stroke-width=".7" stroke-linejoin="round"/><path d="M100 25L103 35.14L100 40Z" fill="#081022" opacity=".3"/></g><g transform="rotate(18 100 100)"><path d="M100 25Q99.25 30.07 97 35.14L100 40L103 35.14Q100.75 30.07 100 25Z" fill="url(#g8m)" stroke="#3a2708" stroke-width=".7" stroke-linejoin="round"/><path d="M100 25L103 35.14L100 40Z" fill="#081022" opacity=".3"/></g><g transform="rotate(0 100 100)"><path d="M100 18.9L105.6 29.9L100 40.9L94.4 29.9Z" fill="url(#g8p)" stroke="url(#g8m)" stroke-width=".8" stroke-linejoin="round"/><path d="M100 18.9L105.6 29.9L100 40.9Z" fill="#081022" opacity=".32"/><path d="M100 23.08L96.92 29.35L100 31Z" fill="#fff" opacity=".7" class="gl1"/></g><g transform="rotate(180 100 100)"><path d="M100 25.5L104 32.9L100 40.3L96 32.9Z" fill="url(#g8p)" stroke="url(#g8m)" stroke-width=".8" stroke-linejoin="round"/><path d="M100 25.5L104 32.9L100 40.3Z" fill="#081022" opacity=".32"/><path d="M100 28.31L97.8 32.53L100 33.64Z" fill="#fff" opacity=".7" class="gl0"/></g><circle cx="100" cy="29.9" r="15" fill="url(#g8s)" class="tw1"/><path d="M100 8.4Q100.64 13.26 105.5 13.9Q100.64 14.54 100 19.4Q99.36 14.54 94.5 13.9Q99.36 13.26 100 8.4Z" fill="#fff" class="tw1"/><g class="orbit"><path d="M192.56 91A93 93 0 0 0 191.59 83.85" fill="none" stroke="#b07bff" stroke-width="0.72" stroke-linecap="round" opacity="0.06"/><path d="M192.98 98.2A93 93 0 0 0 192.56 91" fill="none" stroke="#5aa2ff" stroke-width="1.13" stroke-linecap="round" opacity="0.1"/><path d="M192.84 105.41A93 93 0 0 0 192.98 98.2" fill="none" stroke="#4df2d6" stroke-width="1.55" stroke-linecap="round" opacity="0.16"/><path d="M192.14 112.59A93 93 0 0 0 192.84 105.41" fill="none" stroke="#b07bff" stroke-width="1.96" stroke-linecap="round" opacity="0.24"/><path d="M190.89 119.69A93 93 0 0 0 192.14 112.59" fill="none" stroke="#5aa2ff" stroke-width="2.38" stroke-linecap="round" opacity="0.34"/><path d="M189.09 126.67A93 93 0 0 0 190.89 119.69" fill="none" stroke="#4df2d6" stroke-width="2.79" stroke-linecap="round" opacity="0.47"/><path d="M186.76 133.5A93 93 0 0 0 189.09 126.67" fill="none" stroke="#b07bff" stroke-width="3.21" stroke-linecap="round" opacity="0.62"/><path d="M183.9 140.12A93 93 0 0 0 186.76 133.5" fill="none" stroke="#5aa2ff" stroke-width="3.62" stroke-linecap="round" opacity="0.8"/><path d="M180.54 146.5A93 93 0 0 0 183.9 140.12" fill="none" stroke="#4df2d6" stroke-width="4.04" stroke-linecap="round" opacity="1"/><path d="M180.54 146.5A93 93 0 0 0 190.97 119.34" fill="none" stroke="#fff" stroke-width="0.92" stroke-linecap="round" opacity=".9"/><circle cx="195.44" cy="112.06" r="0.66" fill="#fff" class="tw1"/><circle cx="189.96" cy="97.49" r="0.66" fill="#fff" class="tw2"/><circle cx="194.62" cy="82.63" r="0.66" fill="#fff" class="tw0"/><circle cx="180.54" cy="146.5" r="5.28" fill="url(#g8s)"/><path d="M180.54 141.22Q180.85 146.19 185.82 146.5Q180.85 146.81 180.54 151.78Q180.23 146.81 175.26 146.5Q180.23 146.19 180.54 141.22Z" fill="#fff" opacity=".7" class="tw1"/><path d="M180.54 143.53Q181.04 146 183.51 146.5Q181.04 147 180.54 149.47Q180.04 147 177.57 146.5Q180.04 146 180.54 143.53Z" fill="#fff"/></g><circle cx="100" cy="100" r="64" fill="none" stroke="url(#g8p)" stroke-width="1.3" class="rip" style="animation-delay:0s"/></svg>