<svg xmlns="http://www.w3.org/2000/svg" viewBox="0 0 200 200" role="img" aria-label="L2 观测"><style>.core{animation:core 4.8s ease-in-out infinite}@keyframes core{0%,100%{opacity:.45}50%{opacity:1}}
.sheen{animation:sheen 8.4s ease-in-out infinite}@keyframes sheen{0%,50%{transform:translateX(0)}86%,100%{transform:translateX(360px)}}
.msh{animation:msh 6s ease-in-out infinite}@keyframes msh{0%,45%{transform:translateX(0)}80%,100%{transform:translateX(120px)}}
.ob{animation:ob 4.6s linear infinite}@keyframes ob{to{stroke-dashoffset:-100}}.obh{stroke-dashoffset:-15.9;animation:obh 4.6s linear infinite}@keyframes obh{to{stroke-dashoffset:-115.9}}
.run{animation:run 7s linear infinite}@keyframes run{to{stroke-dashoffset:-400}}
@media (prefers-reduced-motion:reduce){*{animation:none!important}.msh,.ob,.obh,.sheen,.run{display:none}}</style><defs><linearGradient id="t2ma" x1="20" y1="10" x2="180" y2="190" gradientUnits="userSpaceOnUse"><stop offset="0" stop-color="#8fbae3"/><stop offset=".34" stop-color="#3980c7"/><stop offset=".66" stop-color="#234f7a"/><stop offset="1" stop-color="#649dd5"/></linearGradient><radialGradient id="t2c" cx="100" cy="116" r="98" gradientUnits="userSpaceOnUse"><stop offset="0" stop-color="#529ae1"/><stop offset=".42" stop-color="#21466f"/><stop offset="1" stop-color="#080b15"/></radialGradient><radialGradient id="t2h"><stop offset="0" stop-color="#86ccff" stop-opacity=".9"/><stop offset=".4" stop-color="#86ccff" stop-opacity=".3"/><stop offset="1" stop-color="#86ccff" stop-opacity="0"/></radialGradient><radialGradient id="t2g" cx=".5" cy=".42" r=".62"><stop offset="0" stop-color="#163151"/><stop offset="1" stop-color="#050914"/></radialGradient><linearGradient id="t2gs" x1="0" y1="14" x2="0" y2="100" gradientUnits="userSpaceOnUse"><stop offset="0" stop-color="#fff" stop-opacity=".14"/><stop offset="1" stop-color="#fff" stop-opacity=".01"/></linearGradient><linearGradient id="t2is" x1="30" y1="20" x2="170" y2="176" gradientUnits="userSpaceOnUse"><stop offset="0" stop-color="#000" stop-opacity=".9"/><stop offset=".55" stop-color="#000" stop-opacity="0"/></linearGradient><linearGradient id="t2sh" x1="0" y1="0" x2="1" y2="0"><stop offset="0" stop-color="#fff" stop-opacity="0"/><stop offset=".5" stop-color="#fff" stop-opacity="0.24"/><stop offset="1" stop-color="#fff" stop-opacity="0"/></linearGradient><filter id="t2fm" x="-8%" y="-8%" width="116%" height="116%" color-interpolation-filters="sRGB"><feGaussianBlur in="SourceAlpha" stdDeviation="1.5" result="b"/><feDiffuseLighting in="b" surfaceScale="5" diffuseConstant="1.25" lighting-color="#fff" result="df"><feDistantLight azimuth="232" elevation="52"/></feDiffuseLighting><feComposite in="SourceGraphic" in2="df" operator="arithmetic" k1="1" k2=".12" result="lt"/><feSpecularLighting in="b" surfaceScale="5" specularConstant="0.9" specularExponent="24" lighting-color="#fff" result="sp"><feDistantLight azimuth="232" elevation="52"/></feSpecularLighting><feComposite in="sp" in2="SourceAlpha" operator="in" result="sp2"/><feComposite in="lt" in2="sp2" operator="arithmetic" k2="1" k3="1" result="m"/><feTurbulence type="fractalNoise" baseFrequency="1.1" numOctaves="2" seed="7" result="n"/><feColorMatrix in="n" type="matrix" values="0 0 0 0 1  0 0 0 0 1  0 0 0 0 1  .5 .5 0 0 -.42" result="g"/><feComposite in="g" in2="SourceAlpha" operator="in" result="g2"/><feComposite in="m" in2="g2" operator="arithmetic" k2="1" k3=".14" result="m"/><feComposite in="m" in2="SourceAlpha" operator="in"/></filter><filter id="t2ft" x="-8%" y="-8%" width="116%" height="116%" color-interpolation-filters="sRGB"><feGaussianBlur in="SourceAlpha" stdDeviation="0.7" result="b"/><feDiffuseLighting in="b" surfaceScale="2.4" diffuseConstant="1.25" lighting-color="#fff" result="df"><feDistantLight azimuth="232" elevation="52"/></feDiffuseLighting><feComposite in="SourceGraphic" in2="df" operator="arithmetic" k1="1" k2=".12" result="lt"/><feSpecularLighting in="b" surfaceScale="2.4" specularConstant="0.75" specularExponent="24" lighting-color="#fff" result="sp"><feDistantLight azimuth="232" elevation="52"/></feSpecularLighting><feComposite in="sp" in2="SourceAlpha" operator="in" result="sp2"/><feComposite in="lt" in2="sp2" operator="arithmetic" k2="1" k3="1" result="m"/><feComposite in="m" in2="SourceAlpha" operator="in"/></filter><filter id="t2d" x="-30%" y="-30%" width="160%" height="170%"><feGaussianBlur stdDeviation="5"/></filter><filter id="t2b" x="-80%" y="-80%" width="260%" height="260%"><feGaussianBlur stdDeviation="1.9"/></filter><clipPath id="t2k"><path d="M106 10L190 94L190 106L106 190L94 190L10 106L10 94L94 10Z"/></clipPath><clipPath id="t2c2"><path d="M103 22L178 97L178 103L103 178L97 178L22 103L22 97L97 22Z"/></clipPath><clipPath id="t2a"><circle cx="100" cy="100" r="43"/></clipPath></defs><path d="M106 15L185 94L185 106L106 185L94 185L15 106L15 94L94 15Z" transform="translate(0 7)" fill="#000" opacity=".42" filter="url(#t2d)"/><path d="M106 8.8L191.2 94L191.2 106L106 191.2L94 191.2L8.8 106L8.8 94L94 8.8Z" fill="#060d14"/><path d="M106 10.6L189.4 94L189.4 106L106 189.4L94 189.4L10.6 106L10.6 94L94 10.6Z" fill="#080b15"/><g clip-path="url(#t2c2)"><path d="M103 22L178 97L178 103L103 178L97 178L22 103L22 97L97 22Z" fill="url(#t2c)"/><path data-ground="2" d="M20 10V190M10 20H190M30 10V190M10 30H190M40 10V190M10 40H190M50 10V190M10 50H190M60 10V190M10 60H190M70 10V190M10 70H190M80 10V190M10 80H190M90 10V190M10 90H190M100 10V190M10 100H190M110 10V190M10 110H190M120 10V190M10 120H190M130 10V190M10 130H190M140 10V190M10 140H190M150 10V190M10 150H190M160 10V190M10 160H190M170 10V190M10 170H190M180 10V190M10 180H190" fill="none" stroke="#86ccff" stroke-width=".4" opacity=".2"/><path d="M0 0H200V62Q100 92 0 62Z" fill="url(#t2gs)"/><path d="M103 22L178 97L178 103L103 178L97 178L22 103L22 97L97 22Z" fill="none" stroke="url(#t2is)" stroke-width="13" filter="url(#t2b)"/></g><path d="M100 29.5L105 34.5L100 39.5L95 34.5Z" fill="#3f8fde" stroke="#3f8fde" stroke-width="4" opacity=".8" filter="url(#t2b)"/><path d="M100 29.5L105 34.5L100 39.5L95 34.5Z" fill="#c3e6ff" data-rank="lit"/><path d="M165.5 95L170.5 100L165.5 105L160.5 100Z" fill="#3f8fde" stroke="#3f8fde" stroke-width="4" opacity=".8" filter="url(#t2b)"/><path d="M165.5 95L170.5 100L165.5 105L160.5 100Z" fill="#c3e6ff" data-rank="lit"/><path d="M100 160.5L105 165.5L100 170.5L95 165.5Z" fill="#3f8fde" stroke="#3f8fde" stroke-width="4" opacity=".8" filter="url(#t2b)"/><path d="M100 160.5L105 165.5L100 170.5L95 165.5Z" fill="#c3e6ff" data-rank="lit" class="core"/><path d="M34.5 95L39.5 100L34.5 105L29.5 100Z" fill="none" stroke="#86ccff" stroke-width=".9" opacity=".35" data-rank="unlit"/><circle cx="100" cy="100" r="49.5" fill="#070f16"/><circle cx="100" cy="100" r="43" fill="url(#t2g)"/><g clip-path="url(#t2a)"><defs><radialGradient id="t2mn" cx=".62" cy=".34" r=".9"><stop offset="0" stop-color="#fff"/><stop offset=".35" stop-color="#b0deff"/><stop offset="1" stop-color="#58a4ea"/></radialGradient><clipPath id="t2ml"><path d="M100 70A30 30 0 0 1 100 130A18 30 0 0 1 100 70Z"/></clipPath></defs><g transform="rotate(-22 100 100)"><circle cx="100" cy="100" r="39" fill="url(#t2h)" opacity="0.73" class="core"/><circle cx="100" cy="100" r="30" fill="#081b32"/><circle cx="100" cy="100" r="30" fill="none" stroke="#3f8fde" stroke-width=".8" opacity=".55"/><path d="M100 70A30 30 0 0 1 100 130A18 30 0 0 1 100 70Z" fill="#86ccff" opacity=".7" filter="url(#t2b)"/><path data-moon="0.8" d="M100 70A30 30 0 0 1 100 130A18 30 0 0 1 100 70Z" fill="url(#t2mn)"/><g clip-path="url(#t2ml)"><g fill="#2d6eb2" opacity=".22"><circle cx="112" cy="88" r="6"/><circle cx="118" cy="106" r="4"/><circle cx="106" cy="116" r="5"/><circle cx="96" cy="96" r="7"/><circle cx="88" cy="112" r="4.5"/><circle cx="100" cy="78" r="3.5"/><circle cx="84" cy="92" r="3"/></g><g class="msh"><rect x="40" y="60" width="14" height="80" fill="#fff" opacity=".7" transform="skewX(-18)"/></g></g></g><g data-satellite="1" transform="rotate(-18 100 100)" fill="none"><path d="M58 100A42 14 0 1 1 142 100A42 14 0 1 1 58 100Z" stroke="#86ccff" stroke-width=".5" opacity=".35"/><path d="M58 100A42 14 0 1 1 142 100A42 14 0 1 1 58 100Z" pathLength="100" stroke="#3f8fde" stroke-width="4.4" stroke-dasharray="16 84" opacity=".8" filter="url(#t2b)" class="ob" style="animation-delay:0s"/><path d="M58 100A42 14 0 1 1 142 100A42 14 0 1 1 58 100Z" pathLength="100" stroke="#fff" stroke-width="3.2" stroke-linecap="round" stroke-dasharray=".1 99.9" class="obh" style="animation-delay:0s"/></g><circle cx="100" cy="100" r="43" fill="none" stroke="#000" stroke-width="6" opacity=".34"/></g><g filter="url(#t2ft)"><path fill-rule="evenodd" d="M51.4 100a48.6 48.6 0 1 0 97.2 0a48.6 48.6 0 1 0 -97.2 0ZM57 100a43 43 0 1 0 86 0a43 43 0 1 0 -86 0Z" fill="url(#t2ma)"/></g><path d="M104 16L184 96L184 104L104 184L96 184L16 104L16 96L96 16Z" fill="none" stroke="#86ccff" stroke-width="3.4" opacity=".55" filter="url(#t2b)"/><path d="M104 16L184 96L184 104L104 184L96 184L16 104L16 96L96 16Z" fill="none" stroke="#86ccff" stroke-width=".9" opacity=".9"/><g filter="url(#t2fm)"><path data-frame="2" fill-rule="evenodd" d="M106 10L190 94L190 106L106 190L94 190L10 106L10 94L94 10ZM103 13L187 97L187 103L103 187L97 187L13 103L13 97L97 13ZM106 20L180 94L180 106L106 180L94 180L20 106L20 94L94 20ZM103 23L177 97L177 103L103 177L97 177L23 103L23 97L97 23Z" fill="url(#t2ma)"/></g><g fill="none"><path d="M104 16L184 96L184 104L104 184L96 184L16 104L16 96L96 16Z" pathLength="400" stroke="#3f8fde" stroke-width="7" stroke-dasharray="54 346" opacity=".8" filter="url(#t2b)" class="run"/><path d="M104 16L184 96L184 104L104 184L96 184L16 104L16 96L96 16Z" pathLength="400" stroke="#fff" stroke-width="1.6" stroke-dasharray="54 346" opacity=".9" class="run"/></g><g clip-path="url(#t2k)"><g class="sheen"><rect x="-90" y="0" width="42" height="200" fill="url(#t2sh)" transform="skewX(-20)"/></g></g></svg>